<?xml version="1.0" encoding="UTF-8"?>
<svg xmlns="http://www.w3.org/2000/svg" xmlns:xlink="http://www.w3.org/1999/xlink" viewBox="0 0 48 48" width="48px" height="48px">
<g id="surface355078">
<path style=" stroke:none;fill-rule:nonzero;fill:rgb(80.000001%,80.000001%,80.000001%);fill-opacity:1;" d="M 24 48 C 10.746094 48 0 37.253906 0 24 C 0 10.746094 10.746094 0 24 0 C 37.253906 0 48 10.746094 48 24 C 48 37.253906 37.253906 48 24 48 Z M 24 48 "/>
<path style=" stroke:none;fill-rule:nonzero;fill:rgb(100%,100%,100%);fill-opacity:1;" d="M 16.996094 22.84375 C 16.996094 23.242188 17.039062 23.566406 17.113281 23.800781 C 17.199219 24.039062 17.304688 24.296875 17.453125 24.578125 C 17.507812 24.664062 17.53125 24.75 17.53125 24.828125 C 17.53125 24.933594 17.464844 25.042969 17.328125 25.152344 L 16.652344 25.601562 C 16.558594 25.667969 16.460938 25.699219 16.375 25.699219 C 16.269531 25.699219 16.164062 25.644531 16.054688 25.550781 C 15.90625 25.386719 15.777344 25.214844 15.671875 25.042969 C 15.5625 24.859375 15.457031 24.652344 15.339844 24.40625 C 14.507812 25.398438 13.460938 25.894531 12.199219 25.894531 C 11.304688 25.894531 10.589844 25.636719 10.066406 25.117188 C 9.542969 24.601562 9.273438 23.910156 9.273438 23.046875 C 9.273438 22.128906 9.59375 21.386719 10.246094 20.824219 C 10.898438 20.265625 11.761719 19.984375 12.863281 19.984375 C 13.226562 19.984375 13.601562 20.015625 13.996094 20.070312 C 14.390625 20.125 14.796875 20.210938 15.222656 20.308594 L 15.222656 19.519531 C 15.222656 18.703125 15.050781 18.128906 14.722656 17.796875 C 14.378906 17.460938 13.800781 17.300781 12.980469 17.300781 C 12.605469 17.300781 12.222656 17.339844 11.828125 17.4375 C 11.433594 17.535156 11.046875 17.65625 10.675781 17.804688 C 10.503906 17.882812 10.375 17.925781 10.300781 17.945312 C 10.226562 17.96875 10.171875 17.976562 10.128906 17.976562 C 9.980469 17.976562 9.90625 17.871094 9.90625 17.644531 L 9.90625 17.117188 C 9.90625 16.941406 9.925781 16.8125 9.980469 16.738281 C 10.035156 16.664062 10.128906 16.585938 10.28125 16.511719 C 10.652344 16.316406 11.101562 16.15625 11.625 16.027344 C 12.148438 15.886719 12.703125 15.820312 13.289062 15.820312 C 14.5625 15.820312 15.492188 16.113281 16.089844 16.695312 C 16.675781 17.277344 16.976562 18.160156 16.976562 19.347656 L 16.976562 22.839844 L 16.996094 22.839844 Z M 12.660156 24.480469 C 13.011719 24.480469 13.375 24.417969 13.757812 24.285156 C 14.144531 24.15625 14.484375 23.921875 14.773438 23.597656 C 14.945312 23.390625 15.074219 23.164062 15.136719 22.90625 C 15.203125 22.648438 15.242188 22.335938 15.242188 21.96875 L 15.242188 21.515625 C 14.933594 21.441406 14.601562 21.375 14.261719 21.332031 C 13.917969 21.289062 13.589844 21.265625 13.257812 21.265625 C 12.542969 21.265625 12.019531 21.40625 11.667969 21.699219 C 11.3125 21.988281 11.144531 22.398438 11.144531 22.9375 C 11.144531 23.445312 11.273438 23.824219 11.539062 24.082031 C 11.792969 24.351562 12.167969 24.480469 12.660156 24.480469 Z M 21.234375 25.644531 C 21.042969 25.644531 20.914062 25.613281 20.828125 25.539062 C 20.742188 25.472656 20.667969 25.324219 20.605469 25.117188 L 18.09375 16.78125 C 18.03125 16.566406 18 16.425781 18 16.351562 C 18 16.179688 18.082031 16.082031 18.253906 16.082031 L 19.300781 16.082031 C 19.503906 16.082031 19.644531 16.113281 19.71875 16.1875 C 19.804688 16.253906 19.867188 16.402344 19.929688 16.609375 L 21.726562 23.75 L 23.390625 16.609375 C 23.445312 16.394531 23.507812 16.253906 23.59375 16.1875 C 23.679688 16.125 23.828125 16.082031 24.019531 16.082031 L 24.875 16.082031 C 25.078125 16.082031 25.214844 16.113281 25.300781 16.1875 C 25.386719 16.253906 25.460938 16.402344 25.503906 16.609375 L 27.191406 23.835938 L 29.039062 16.609375 C 29.101562 16.394531 29.179688 16.253906 29.253906 16.1875 C 29.339844 16.125 29.476562 16.082031 29.667969 16.082031 L 30.664062 16.082031 C 30.832031 16.082031 30.929688 16.167969 30.929688 16.351562 C 30.929688 16.40625 30.917969 16.457031 30.90625 16.523438 C 30.898438 16.589844 30.875 16.675781 30.832031 16.792969 L 28.257812 25.128906 C 28.195312 25.34375 28.121094 25.484375 28.035156 25.550781 C 27.949219 25.613281 27.8125 25.65625 27.628906 25.65625 L 26.710938 25.65625 C 26.507812 25.65625 26.371094 25.625 26.285156 25.550781 C 26.199219 25.472656 26.125 25.332031 26.082031 25.117188 L 24.425781 18.160156 L 22.78125 25.105469 C 22.730469 25.324219 22.664062 25.464844 22.578125 25.539062 C 22.496094 25.613281 22.34375 25.644531 22.152344 25.644531 Z M 34.953125 25.9375 C 34.398438 25.9375 33.84375 25.871094 33.3125 25.742188 C 32.777344 25.613281 32.359375 25.472656 32.082031 25.3125 C 31.914062 25.214844 31.792969 25.105469 31.75 25.011719 C 31.710938 24.914062 31.6875 24.804688 31.6875 24.707031 L 31.6875 24.160156 C 31.6875 23.933594 31.773438 23.824219 31.933594 23.824219 C 31.996094 23.824219 32.0625 23.835938 32.125 23.855469 C 32.1875 23.878906 32.285156 23.921875 32.390625 23.964844 C 32.753906 24.125 33.148438 24.253906 33.566406 24.339844 C 33.992188 24.425781 34.410156 24.46875 34.835938 24.46875 C 35.511719 24.46875 36.03125 24.351562 36.394531 24.113281 C 36.757812 23.878906 36.953125 23.53125 36.953125 23.089844 C 36.953125 22.789062 36.855469 22.539062 36.664062 22.335938 C 36.472656 22.128906 36.109375 21.945312 35.585938 21.773438 L 34.035156 21.289062 C 33.257812 21.039062 32.679688 20.675781 32.328125 20.1875 C 31.976562 19.714844 31.792969 19.1875 31.792969 18.625 C 31.792969 18.171875 31.890625 17.773438 32.082031 17.425781 C 32.273438 17.082031 32.53125 16.78125 32.851562 16.542969 C 33.171875 16.296875 33.535156 16.113281 33.960938 15.984375 C 34.390625 15.855469 34.835938 15.800781 35.308594 15.800781 C 35.542969 15.800781 35.789062 15.8125 36.023438 15.84375 C 36.269531 15.875 36.492188 15.917969 36.71875 15.960938 C 36.929688 16.015625 37.132812 16.070312 37.324219 16.132812 C 37.519531 16.199219 37.667969 16.261719 37.773438 16.328125 C 37.925781 16.414062 38.03125 16.5 38.09375 16.597656 C 38.160156 16.683594 38.191406 16.800781 38.191406 16.953125 L 38.191406 17.460938 C 38.191406 17.6875 38.105469 17.804688 37.945312 17.804688 C 37.859375 17.804688 37.722656 17.761719 37.539062 17.675781 C 36.929688 17.394531 36.246094 17.253906 35.488281 17.253906 C 34.882812 17.253906 34.402344 17.351562 34.070312 17.558594 C 33.738281 17.761719 33.570312 18.074219 33.570312 18.515625 C 33.570312 18.820312 33.675781 19.078125 33.890625 19.28125 C 34.101562 19.488281 34.496094 19.691406 35.0625 19.875 L 36.578125 20.363281 C 37.347656 20.609375 37.902344 20.953125 38.234375 21.398438 C 38.566406 21.839844 38.726562 22.347656 38.726562 22.90625 C 38.726562 23.371094 38.628906 23.789062 38.449219 24.15625 C 38.253906 24.523438 38 24.847656 37.667969 25.105469 C 37.335938 25.375 36.941406 25.570312 36.484375 25.710938 C 36 25.863281 35.5 25.9375 34.953125 25.9375 Z M 34.953125 25.9375 "/>
<path style=" stroke:none;fill-rule:nonzero;fill:rgb(100%,60.000002%,0%);fill-opacity:1;" d="M 36.972656 31.179688 C 33.460938 33.796875 28.355469 35.191406 23.96875 35.191406 C 17.816406 35.191406 12.273438 32.894531 8.089844 29.074219 C 7.757812 28.773438 8.058594 28.363281 8.453125 28.601562 C 12.980469 31.253906 18.5625 32.859375 24.339844 32.859375 C 28.238281 32.859375 32.519531 32.042969 36.460938 30.359375 C 37.046875 30.089844 37.550781 30.746094 36.972656 31.179688 Z M 38.4375 29.496094 C 37.988281 28.914062 35.46875 29.214844 34.324219 29.355469 C 33.984375 29.398438 33.929688 29.097656 34.238281 28.871094 C 36.246094 27.445312 39.546875 27.855469 39.929688 28.332031 C 40.316406 28.816406 39.824219 32.148438 37.945312 33.746094 C 37.65625 33.992188 37.378906 33.863281 37.507812 33.539062 C 37.933594 32.472656 38.882812 30.066406 38.4375 29.496094 Z M 38.4375 29.496094 "/>
<path style=" stroke:none;fill-rule:nonzero;fill:rgb(80.000001%,80.000001%,80.000001%);fill-opacity:1;" d="M 23.585938 23.597656 L 23.585938 23.683594 L 23.332031 23.683594 L 23.332031 24.390625 L 23.226562 24.390625 L 23.226562 23.683594 L 22.972656 23.683594 L 22.972656 23.597656 Z M 23.878906 24.402344 C 23.796875 24.402344 23.730469 24.375 23.683594 24.324219 C 23.632812 24.269531 23.609375 24.199219 23.609375 24.113281 L 23.609375 24.09375 C 23.609375 24.035156 23.621094 23.980469 23.644531 23.9375 C 23.664062 23.890625 23.695312 23.855469 23.734375 23.828125 C 23.777344 23.804688 23.820312 23.789062 23.867188 23.789062 C 23.941406 23.789062 24 23.816406 24.042969 23.867188 C 24.085938 23.917969 24.109375 23.988281 24.109375 24.082031 L 24.109375 24.125 L 23.710938 24.125 C 23.710938 24.183594 23.726562 24.230469 23.761719 24.265625 C 23.792969 24.300781 23.832031 24.316406 23.882812 24.316406 C 23.917969 24.316406 23.949219 24.3125 23.976562 24.296875 C 24 24.285156 24.019531 24.265625 24.039062 24.238281 L 24.101562 24.289062 C 24.050781 24.363281 23.976562 24.402344 23.878906 24.402344 Z M 23.867188 23.871094 C 23.824219 23.871094 23.789062 23.886719 23.761719 23.917969 C 23.734375 23.945312 23.71875 23.988281 23.710938 24.042969 L 24.007812 24.042969 L 24.007812 24.035156 C 24.003906 23.984375 23.992188 23.945312 23.964844 23.917969 C 23.941406 23.886719 23.910156 23.871094 23.867188 23.871094 Z M 24.292969 23.800781 L 24.421875 24.015625 L 24.550781 23.800781 L 24.671875 23.800781 L 24.476562 24.09375 L 24.679688 24.390625 L 24.5625 24.390625 L 24.425781 24.171875 L 24.289062 24.390625 L 24.171875 24.390625 L 24.371094 24.09375 L 24.175781 23.800781 Z M 24.816406 23.660156 L 24.914062 23.660156 L 24.914062 23.800781 L 25.023438 23.800781 L 25.023438 23.878906 L 24.914062 23.878906 L 24.914062 24.246094 C 24.914062 24.269531 24.921875 24.285156 24.929688 24.296875 C 24.9375 24.308594 24.957031 24.316406 24.980469 24.316406 C 24.992188 24.316406 25.007812 24.3125 25.027344 24.308594 L 25.027344 24.390625 C 25 24.398438 24.976562 24.402344 24.953125 24.402344 C 24.90625 24.402344 24.871094 24.386719 24.847656 24.359375 C 24.824219 24.332031 24.816406 24.296875 24.816406 24.246094 L 24.816406 23.878906 L 24.707031 23.878906 L 24.707031 23.800781 L 24.816406 23.800781 Z M 24.816406 23.660156 "/>
</g>
</svg>
